<svg width="11" height="11" viewBox="0 0 11 11" fill="none">
          <path
            d="M0.267578 0.896744C0.0800781 0.709244 0.0800781 0.397181 0.267578 0.203125C0.461634 0.015625 0.767141 0.015625 0.961197 0.203125L5.12335 4.37227L9.29249 0.203125C9.47999 0.015625 9.79205 0.015625 9.97912 0.203125C10.1732 0.397181 10.1732 0.709681 9.97912 0.896744L5.81697 5.05933L9.97912 9.22847C10.1732 9.41597 10.1732 9.72804 9.97912 9.92209C9.79162 10.1096 9.47955 10.1096 9.29249 9.92209L5.12335 5.75295L0.961197 9.92209C0.767141 10.1096 0.461634 10.1096 0.267578 9.92209C0.0800781 9.72804 0.0800781 9.41554 0.267578 9.22847L4.42973 5.05933L0.267578 0.896744Z"
            fill="#939393"
          />
        </svg>